<svg id="Layer_1" data-name="Layer 1" xmlns="http://www.w3.org/2000/svg" width="668.9" height="716.64" viewBox="0 0 668.9 716.64"><defs><style>.cls-1{fill:#231f20;stroke:#231f20;stroke-miterlimit:10;stroke-width:25px;}</style></defs><path class="cls-1" d="M799.29,551.38l46.82,59.22-59.19-46.78a123,123,0,0,1-69.63,29.87L705.78,706.25,694.26,593.69a123,123,0,0,1-70.07-30.26l-35.28,27.89,27.75-35.11A123,123,0,0,1,583,484L480.58,472l102.16-12a123,123,0,0,1,34.12-75l-18.63-23.56,23.62,18.67a122.92,122.92,0,0,1,72.4-32.37l11.53-112.57,11.51,112.56a123.06,123.06,0,0,1,73.4,33.3l40.37-31.91L799,389.73a122.88,122.88,0,0,1,29.79,70L934.28,472,828.51,484.41A122.83,122.83,0,0,1,799.29,551.38Z" transform="translate(-372.99 -112.44)"/></svg>