<svg id="Layer_1" data-name="Layer 1" xmlns="http://www.w3.org/2000/svg" width="458.67" height="454.98" viewBox="0 0 458.67 454.98"><defs><style>.cls-1{fill:#231f20;stroke:#231f20;stroke-miterlimit:10;stroke-width:25px;}</style></defs><path class="cls-1" d="M561.18,225.35,512.32,242.5l52.06,19.39c6.77,35.5,14.33,47.37,28.28,74.17l-10.12,21.42,21.75-8.68a146.07,146.07,0,0,0,83.12,40.33l17,47.43,20.32-47.31a146,146,0,0,0,84-40.41L829,358.45l-8.84-22.16a145.65,145.65,0,0,0,31.61-73.48l48.32-17.3-48.34-20.78a145.77,145.77,0,0,0-33-75L830,125.87l-24.67,9.85a145.85,145.85,0,0,0-79.4-37.07L707.76,49.84,687.53,98.59a145.82,145.82,0,0,0-75.91,33.68L583.51,119l11.78,29.54a145.85,145.85,0,0,0-34.11,76.83l.19-.07m145.84,154a136,136,0,1,1,136-136A136,136,0,0,1,707.21,379.28Z" transform="translate(-475.57 -15.71)"/></svg>